<svg width="957" height="1048" viewBox="0 0 957 1048" fill="none" xmlns="http://www.w3.org/2000/svg">
<path d="M793.909 98.1237L793.91 98.1241C816.633 139.278 821.064 192.74 823.143 249.514C823.455 258.029 823.714 266.617 823.974 275.248C825.448 324.124 826.963 374.374 838.359 420.328C851.105 471.724 876.207 517.693 899.984 561.233C901.224 563.504 902.461 565.77 903.692 568.029C928.542 613.614 951.113 656.655 955.637 700.781C964.682 788.793 901.566 881.161 815.201 950.943C772.143 985.716 723.323 1014.81 674.411 1031.49C625.498 1048.18 576.53 1052.45 533.144 1037.65C489.634 1022.84 451.636 988.859 413.43 949.895C404.46 940.748 395.48 931.325 386.415 921.815C356.896 890.843 326.483 858.935 292.661 832.533C256.26 804.031 215.897 781.896 177.304 760.732C169.023 756.19 160.823 751.694 152.761 747.188C107.1 721.67 65.8786 695.88 39.1649 660.113L39.1639 660.112C-14.4712 588.802 -10.4074 477.629 39.6201 397.768C64.6267 357.849 101.071 325.746 142.072 294.908C158.125 282.834 174.887 270.947 191.93 258.86C218.381 240.102 245.509 220.864 271.715 199.701L271.401 199.312L271.715 199.701C293.327 182.238 314.316 163.464 335.163 144.685C336.742 143.263 338.32 141.84 339.898 140.418C359.152 123.065 378.317 105.793 397.786 89.6201C439.917 54.6215 483.433 24.8076 532.259 10.5134C581.085 -3.78089 635.146 -2.51084 682.683 12.6584C730.221 27.8279 771.197 56.8833 793.909 98.1237Z" fill="url(#paint0_linear)" stroke="white"/>
<defs>
<linearGradient id="paint0_linear" x1="478.5" y1="-62.3821" x2="478.5" y2="784.378" gradientUnits="userSpaceOnUse">
<stop stop-color="#FF9B53"/>
<stop offset="1" stop-color="#F8B653"/>
</linearGradient>
</defs>
</svg>
